<?xml version="1.0" encoding="UTF-8" standalone="no"?>
<!-- Created with Inkscape (http://www.inkscape.org/) -->

<svg
   xmlns:dc="http://purl.org/dc/elements/1.1/"
   xmlns:cc="http://creativecommons.org/ns#"
   xmlns:rdf="http://www.w3.org/1999/02/22-rdf-syntax-ns#"
   xmlns:svg="http://www.w3.org/2000/svg"
   xmlns="http://www.w3.org/2000/svg"
   xmlns:sodipodi="http://sodipodi.sourceforge.net/DTD/sodipodi-0.dtd"
   xmlns:inkscape="http://www.inkscape.org/namespaces/inkscape"
   width="24.945955mm"
   height="7.3804302mm"
   viewBox="0 0 24.945955 7.3804304"
   version="1.1"
   id="svg8"
   inkscape:version="0.92.4 5da689c313, 2019-01-14"
   sodipodi:docname="oops.svg">
  <defs
     id="defs2" />
  <sodipodi:namedview
     id="base"
     pagecolor="#ffffff"
     bordercolor="#666666"
     borderopacity="1.0"
     inkscape:pageopacity="0.0"
     inkscape:pageshadow="2"
     inkscape:zoom="1"
     inkscape:cx="45.392678"
     inkscape:cy="-8.3133001"
     inkscape:document-units="mm"
     inkscape:current-layer="layer1"
     showgrid="false"
     inkscape:window-width="2560"
     inkscape:window-height="1408"
     inkscape:window-x="0"
     inkscape:window-y="0"
     inkscape:window-maximized="1" />
  <metadata
     id="metadata5">
    <rdf:RDF>
      <cc:Work
         rdf:about="">
        <dc:format>image/svg+xml</dc:format>
        <dc:type
           rdf:resource="http://purl.org/dc/dcmitype/StillImage" />
        <dc:title></dc:title>
      </cc:Work>
    </rdf:RDF>
  </metadata>
  <g
     inkscape:label="Layer 1"
     inkscape:groupmode="layer"
     id="layer1"
     transform="translate(-20.918103,-107.10922)">
    <path
       style="font-style:normal;font-variant:normal;font-weight:normal;font-stretch:normal;font-size:11.24710083px;line-height:7.02943754px;font-family:'Microsoft YaHei';-inkscape-font-specification:'Microsoft YaHei, Normal';text-align:start;letter-spacing:0px;word-spacing:0px;writing-mode:lr-tb;text-anchor:start;fill:#888888;fill-opacity:1;stroke:none;stroke-width:0.1511395px;stroke-linecap:butt;stroke-linejoin:miter;stroke-opacity:1"
       d="m 22.136971,107.10922 c -0.680003,0 -1.218868,0.58353 -1.218868,1.27887 v 4.82297 c 0,0.69534 0.538865,1.27859 1.218868,1.27859 h 5.193521 c 0.680003,0 1.218868,-0.58325 1.218868,-1.27859 v -4.82297 c 0,-0.69534 -0.538865,-1.27887 -1.218868,-1.27887 z m 0,0.53749 h 5.193521 c 0.37358,0 0.681376,0.31764 0.681376,0.74138 v 4.82297 c 0,0.42373 -0.307796,0.7411 -0.681376,0.7411 h -5.193521 c -0.37358,0 -0.681377,-0.31737 -0.681377,-0.7411 v -4.82297 c 0,-0.42374 0.307797,-0.74138 0.681377,-0.74138 z m 10.368986,0.16445 c -0.553118,0 -0.99851,0.27983 -1.336088,0.83943 -0.335991,0.55715 -0.50388,1.28046 -0.50388,2.16996 0,0.84062 0.164785,1.52841 0.494436,2.06357 0.329652,0.53272 0.758328,0.79916 1.286089,0.79916 0.540439,0 0.977156,-0.27489 1.309977,-0.82471 0.334407,-0.55227 0.501658,-1.27064 0.501659,-2.15524 0,-0.84795 -0.161042,-1.54214 -0.48277,-2.08219 -0.320143,-0.54005 -0.743247,-0.80998 -1.269423,-0.80998 z m 3.984376,0 c -0.553118,0 -0.998512,0.27983 -1.336087,0.83943 -0.335993,0.55715 -0.503881,1.28046 -0.503881,2.16996 0,0.84062 0.164783,1.52841 0.494436,2.06357 0.329652,0.53272 0.758328,0.79916 1.286089,0.79916 0.540439,0 0.977155,-0.27489 1.309978,-0.82471 0.334405,-0.55227 0.501657,-1.27064 0.501657,-2.15524 0,-0.84795 -0.161041,-1.54214 -0.482769,-2.08219 -0.320143,-0.54005 -0.743248,-0.80998 -1.269423,-0.80998 z m 6.818215,0 c -0.429498,0 -0.775145,0.14675 -1.036649,0.43999 -0.259918,0.29079 -0.389714,0.69992 -0.389714,1.22776 0,0.71843 0.287456,1.26587 0.862762,1.64219 0.366104,0.23459 0.591905,0.42037 0.677489,0.55721 0.08558,0.13685 0.128608,0.28215 0.128608,0.4361 0,0.17839 -0.05389,0.32515 -0.161664,0.44 -0.10777,0.11241 -0.268813,0.16861 -0.482769,0.16861 -0.377199,0 -0.713891,-0.18956 -1.01026,-0.56833 v 1.21331 c 0.269427,0.21016 0.614796,0.31528 1.036371,0.31528 0.461196,0 0.817073,-0.14298 1.067482,-0.42888 0.250407,-0.28591 0.375548,-0.70144 0.375548,-1.24637 0,-0.37144 -0.06878,-0.69146 -0.206662,-0.96026 -0.136299,-0.26881 -0.387495,-0.52418 -0.753599,-0.7661 -0.312219,-0.21016 -0.507969,-0.37614 -0.587212,-0.49833 -0.07924,-0.12462 -0.118887,-0.26031 -0.118887,-0.40693 0,-0.18328 0.05791,-0.32886 0.173609,-0.43638 0.115694,-0.10997 0.270249,-0.16472 0.463602,-0.16472 0.331237,0 0.620246,0.12929 0.867485,0.38832 v -1.13609 c -0.244069,-0.14418 -0.545775,-0.21638 -0.90554,-0.21638 z m -4.443256,0.0953 v 5.67796 h 0.784431 v -1.97941 h 0.40416 c 0.415235,0.0147 0.760881,-0.15277 1.036648,-0.50221 0.277351,-0.35189 0.415827,-0.81867 0.415827,-1.40026 0,-1.19739 -0.457813,-1.79608 -1.373866,-1.79608 z m 6.14295,0 0.09027,3.92938 h 0.622768 l 0.09528,-3.92938 z m -5.358519,0.93832 h 0.347216 c 0.456442,0 0.68471,0.30195 0.68471,0.90554 0,0.61825 -0.230736,0.92721 -0.691932,0.92721 h -0.339994 z m -7.167376,0.0147 c 0.302709,0 0.537189,0.17238 0.703599,0.51694 0.166411,0.34211 0.249717,0.80888 0.249717,1.40025 0,0.56693 -0.08577,1.01886 -0.256939,1.35609 -0.171166,0.33478 -0.410302,0.50221 -0.717765,0.50221 -0.301125,0 -0.538071,-0.17471 -0.710822,-0.52416 -0.17275,-0.35188 -0.259162,-0.80409 -0.259162,-1.35636 0,-0.5596 0.08796,-1.01531 0.263884,-1.3672 0.177506,-0.35189 0.420023,-0.52777 0.727488,-0.52777 z m 3.984375,0 c 0.302709,0 0.537188,0.17238 0.7036,0.51694 0.16641,0.34211 0.249439,0.80888 0.249439,1.40025 0,0.56693 -0.0855,1.01886 -0.256661,1.35609 -0.171166,0.33478 -0.410303,0.50221 -0.717766,0.50221 -0.301125,0 -0.53807,-0.17471 -0.710822,-0.52416 -0.17275,-0.35188 -0.259161,-0.80409 -0.259161,-1.35636 0,-0.5596 0.08796,-1.01531 0.263884,-1.3672 0.177505,-0.35189 0.420024,-0.52777 0.727487,-0.52777 z m -12.823389,0.19833 c 0,0 -0.938792,0.70761 -1.440252,1.14109 l 0.35166,0.40638 c 0.468221,-0.40474 1.41192,-1.11803 1.41192,-1.11803 z m 2.180519,0 -0.323329,0.42944 c 0,0 0.943978,0.71329 1.412199,1.11803 l 0.351659,-0.40638 c -0.50146,-0.43348 -1.440529,-1.14109 -1.440529,-1.14109 z m -1.352478,2.93162 c -0.252461,0.002 -0.525421,0.006 -0.804708,0.0142 l 0.01667,0.53777 c 1.096442,-0.0332 2.099686,0 2.099686,0 l 0.01778,-0.53777 c 0,0 -0.572037,-0.0189 -1.329422,-0.0142 z m 20.94575,0.42555 c -0.126791,0 -0.233662,0.0588 -0.320828,0.1761 -0.08717,0.1173 -0.130833,0.26755 -0.130833,0.45083 0,0.17594 0.04275,0.32503 0.128332,0.44721 0.08717,0.12219 0.203631,0.18306 0.349439,0.18306 0.115695,0 0.214804,-0.0609 0.297216,-0.18306 0.08241,-0.12218 0.123609,-0.27127 0.123609,-0.44721 0,-0.18083 -0.04275,-0.32992 -0.12833,-0.44722 -0.084,-0.11973 -0.190232,-0.17971 -0.318605,-0.17971 z"
       id="text4520"
       inkscape:connector-curvature="0" />
  </g>
</svg>
