<?xml version="1.0" encoding="UTF-8" standalone="no"?>
<!-- Created with Inkscape (http://www.inkscape.org/) -->

<svg
   xmlns:dc="http://purl.org/dc/elements/1.1/"
   xmlns:cc="http://creativecommons.org/ns#"
   xmlns:rdf="http://www.w3.org/1999/02/22-rdf-syntax-ns#"
   xmlns:svg="http://www.w3.org/2000/svg"
   xmlns="http://www.w3.org/2000/svg"
   xmlns:sodipodi="http://sodipodi.sourceforge.net/DTD/sodipodi-0.dtd"
   xmlns:inkscape="http://www.inkscape.org/namespaces/inkscape"
   width="210mm"
   height="297mm"
   viewBox="0 0 210 297"
   version="1.1"
   id="svg8"
   inkscape:export-filename="/home/thor/Workspace/android/EReader/app/src/main/res/mipmap-hdpi/launch_icon.png"
   inkscape:export-xdpi="96"
   inkscape:export-ydpi="96"
   inkscape:version="0.92.4 5da689c313, 2019-01-14"
   sodipodi:docname="background.svg">
  <defs
     id="defs2" />
  <sodipodi:namedview
     id="base"
     pagecolor="#ffffff"
     bordercolor="#666666"
     borderopacity="1.0"
     inkscape:pageopacity="0.0"
     inkscape:pageshadow="2"
     inkscape:zoom="0.70710678"
     inkscape:cx="323.41928"
     inkscape:cy="768.37355"
     inkscape:document-units="mm"
     inkscape:current-layer="layer1"
     showgrid="false"
     inkscape:window-width="1920"
     inkscape:window-height="1168"
     inkscape:window-x="1366"
     inkscape:window-y="0"
     inkscape:window-maximized="1" />
  <metadata
     id="metadata5">
    <rdf:RDF>
      <cc:Work
         rdf:about="">
        <dc:format>image/svg+xml</dc:format>
        <dc:type
           rdf:resource="http://purl.org/dc/dcmitype/StillImage" />
        <dc:title></dc:title>
      </cc:Work>
    </rdf:RDF>
  </metadata>
  <g
     inkscape:label="Layer 1"
     inkscape:groupmode="layer"
     id="layer1">
    <path
       style="font-style:normal;font-weight:normal;font-size:13.10060883px;line-height:1.25;font-family:sans-serif;text-align:center;letter-spacing:0px;word-spacing:0px;text-anchor:middle;fill:#e87cdb;fill-opacity:1;stroke:none;stroke-width:0.32751521"
       d="m 108.57655,101.8707 c -4.11684,-0.0455 -12.709736,0.74995 -15.583546,7.84139 -3.76989,-9.51569 -17.8542,-7.52306 -17.8542,-7.52306 l 0.24856,7.19698 c 0,0 13.57582,-1.30323 15.1505,3.91449 h 4.50773 c 1.32029,-5.23297 15.508096,-3.91449 15.508096,-3.91449 l 0.27026,-7.39128 c 0,0 -0.87513,-0.10886 -2.2474,-0.12403 z m -32.933906,15.55461 c -0.0655,0.47162 -0.14428,0.9562 -0.24908,1.42782 h -1.5198 v 1.45418 h 1.17925 c -0.22271,0.85154 -0.45846,1.51961 -0.56327,1.79472 -0.20961,0.57643 -0.39306,0.94304 -0.66818,1.02164 0.15721,0.36682 0.3932,1.04832 0.47181,1.32344 0.1048,-0.11791 0.5895,-0.19637 1.00872,-0.19637 h 1.02164 v 1.46709 c -0.98254,0.14411 -1.91256,0.2752 -2.61999,0.3669 l 0.31419,1.50637 2.3058,-0.43253 v 2.44998 h 1.42783 v -2.69854 l 1.16633,-0.22273 -0.0785,-1.36271 -1.08779,0.17053 v -1.24436 h 1.02216 v -1.40199 h -1.02216 v -1.86035 h -1.42783 v 1.86035 h -0.74672 c 0.30131,-0.75983 0.61561,-1.6375 0.90382,-2.54144 h 2.41071 v -1.45418 h -2.00453 c 0.0917,-0.39301 0.15756,-0.77298 0.23616,-1.1529 z m 31.585666,0.0129 v 1.00873 h -2.5678 v 1.29708 h 2.5678 v 0.79891 h -3.02669 v 1.31 h 6.10505 c -0.131,0.52402 -0.27517,1.00881 -0.40617,1.37563 l 1.20561,0.27492 c 0.28821,-0.72054 0.61563,-1.80747 0.86455,-2.79001 l -0.99581,-0.20981 -0.22273,0.0393 h -2.00452 v -0.79891 h 2.5678 v -1.29708 h -2.5678 v -1.00873 z m -18.498096,0.0656 -1.17925,0.75964 c 0.57642,0.60263 1.25761,1.44087 1.53272,1.9911 l 1.27072,-0.83819 c -0.31441,-0.56333 -1.03466,-1.34922 -1.62419,-1.91255 z m 12.825576,0.0915 -0.98289,0.99581 c 0.72053,0.60262 1.67711,1.48047 2.10943,2.0438 l 1.048,-1.13999 c -0.45852,-0.53712 -1.46711,-1.34939 -2.17454,-1.89962 z m -17.240806,0.40618 -0.28784,0.0656 h -4.6638 v 1.4149 h 3.70727 c -1.02185,1.37556 -2.72468,2.51501 -4.49327,3.11764 0.32752,0.32751 0.77261,0.91697 0.95602,1.30999 0.98254,-0.39302 1.92589,-0.89079 2.79053,-1.53272 0.96944,0.52402 2.00447,1.11384 2.5678,1.54616 l 0.94309,-1.23145 c -0.55022,-0.37992 -1.46715,-0.86494 -2.35799,-1.28416 0.79913,-0.81224 1.46746,-1.76829 1.92598,-2.85564 z m 6.5505,0.0656 v 1.36218 h 6.19652 v 8.59431 c 0,0.17031 -0.0522,0.23565 -0.23564,0.23565 h -0.60255 c 0.20961,-0.26201 0.34068,-0.68111 0.40618,-1.38855 -0.35372,-0.0786 -0.91709,-0.28821 -1.1529,-0.48472 -0.0393,0.86464 -0.0918,0.99528 -0.28836,0.99528 h -0.49764 c -0.19651,0 -0.22273,-0.0392 -0.22273,-0.34054 v -1.68982 h 1.41439 v -3.57653 h -1.19166 c 0.34062,-0.48472 0.68103,-1.0612 1.02164,-1.63762 l -1.50637,-0.34055 c -0.24891,0.58953 -0.66841,1.38864 -1.06143,1.97817 h -1.29708 l 0.65526,-0.31419 c -0.18341,-0.47162 -0.61604,-1.15291 -1.02216,-1.63763 l -1.19166,0.53692 c 0.32752,0.43232 0.64168,0.96948 0.83819,1.4149 h -1.17925 v 3.57653 h 1.24488 c -0.19651,1.00875 -0.61565,1.84741 -2.05672,2.37143 0.30131,0.24891 0.6939,0.79918 0.85111,1.1529 1.78168,-0.79914 2.34543,-2.00466 2.58124,-3.52433 h 0.54984 v 1.70325 c 0,1.13976 0.2359,1.51929 1.33635,1.51929 h 0.90382 c 0.17031,0 0.31445,-0.0129 0.44545,-0.0522 0.13101,0.36681 0.26197,0.79939 0.30127,1.1007 0.85154,0 1.48041,-0.0398 1.89963,-0.26251 0.43232,-0.24891 0.55035,-0.60238 0.55035,-1.32292 v -9.96941 z m -3.51089,2.50217 v 9.07851 h 1.53272 v -9.07846 z m 12.58941,0.86455 v 1.49344 h 1.585426 v 4.192 c 0,0.70743 -0.35379,1.17927 -0.6289,1.40198 0.23581,0.23581 0.62897,0.75978 0.77308,1.04799 0.20961,-0.30131 0.58953,-0.6941 2.68562,-2.51509 -0.1048,-0.1703 -0.24899,-0.45851 -0.3669,-0.74672 h 2.81637 c -0.55023,0.82534 -1.5066,1.63755 -3.13108,2.24017 0.30131,0.27511 0.75987,0.85138 0.93018,1.2051 2.2664,-0.89085 3.4063,-2.16141 3.94343,-3.44527 h 3.38015 v -1.34979 h -2.9869 c 0.0786,-0.47162 0.10439,-0.91662 0.10439,-1.33583 v -1.41491 h -1.50637 v 0.91674 c -0.45852,-0.36681 -1.21811,-0.79872 -1.80764,-1.07383 l -0.61598,0.73328 c 0.65503,0.34062 1.49369,0.86479 1.8867,1.25781 l 0.53692,-0.65526 v 0.19689 c 0,0.41922 -0.0263,0.87729 -0.14418,1.37511 h -1.02164 l 0.40618,-0.51056 c -0.40612,-0.39302 -1.29713,-0.95665 -1.96526,-1.28416 l -0.69453,0.7338 c 0.53713,0.30132 1.14001,0.6941 1.58544,1.06092 h -1.78181 v 1.19217 c -0.0655,-0.1441 -0.11779,-0.28808 -0.15709,-0.41909 l -0.79944,0.69453 v -4.99142 z m -8.63307,1.57199 h 3.13108 v 1.12655 h -3.13108 z m -11.94759,1.10071 v 1.4149 h 2.24018 v 2.41019 h -2.89543 v 1.44126 h 7.16597 v -1.44126 h -2.71147 v -2.41019 h 2.14819 v -1.4149 z m 29.921686,2.34508 -0.91726,0.86454 c 1.04805,0.68123 2.31901,1.70312 2.89543,2.38435 l 0.99529,-0.98288 c -0.64193,-0.68123 -1.96471,-1.65029 -2.97346,-2.26601 z"
       id="text819"
       inkscape:connector-curvature="0"
       inkscape:export-xdpi="96"
       inkscape:export-ydpi="96" />
  </g>
</svg>
